ffmpeg version N-55863-g9f38fac053-static https://johnvansickle.com/ffmpeg/  Copyright (c) 2000-2021 the FFmpeg developers
  built with gcc 8 (Debian 8.3.0-6)
  configuration: --enable-gpl --enable-version3 --enable-static --disable-debug --disable-ffplay --disable-indev=sndio --disable-outdev=sndio --cc=gcc --enable-fontconfig --enable-frei0r --enable-gnutls --enable-gmp --enable-libgme --enable-gray --enable-libaom --enable-libfribidi --enable-libass --enable-libvmaf --enable-libfreetype --enable-libmp3lame --enable-libopencore-amrnb --enable-libopencore-amrwb --enable-libopenjpeg --enable-librubberband --enable-libsoxr --enable-libspeex --enable-libsrt --enable-libvorbis --enable-libopus --enable-libtheora --enable-libvidstab --enable-libvo-amrwbenc --enable-libvpx --enable-libwebp --enable-libx264 --enable-libx265 --enable-libxml2 --enable-libdav1d --enable-libxvid --enable-libzvbi --enable-libzimg
  libavutil      56. 64.100 / 56. 64.100
  libavcodec     58.119.100 / 58.119.100
  libavformat    58. 65.101 / 58. 65.101
  libavdevice    58. 11.103 / 58. 11.103
  libavfilter     7.100.100 /  7.100.100
  libswscale      5.  8.100 /  5.  8.100
  libswresample   3.  8.100 /  3.  8.100
  libpostproc    55.  8.100 / 55.  8.100
Input #0, mov,mp4,m4a,3gp,3g2,mj2, from '/home/yiaapc5/public_html/f_data/data_userfiles/user_uploads/3995073565/v/1612724447.mp4':
  Metadata:
    major_brand     : mp42
    minor_version   : 0
    compatible_brands: isommp42
    creation_time   : 2019-12-08T16:03:34.000000Z
  Duration: 00:01:57.66, start: 0.000000, bitrate: 701 kb/s
    Stream #0:0(und): Video: h264 (Main) (avc1 / 0x31637661), yuv420p(tv, bt709), 1280x720 [SAR 1:1 DAR 16:9], 568 kb/s, 29.97 fps, 29.97 tbr, 30k tbn, 59.94 tbc (default)
    Metadata:
      creation_time   : 2019-12-08T16:03:34.000000Z
      handler_name    : ISO Media file produced by Google Inc. Created on: 12/08/2019.
      vendor_id       : [0][0][0][0]
    Stream #0:1(und): Audio: aac (LC) (mp4a / 0x6134706D), 44100 Hz, stereo, fltp, 128 kb/s (default)
    Metadata:
      creation_time   : 2019-12-08T16:03:34.000000Z
      handler_name    : ISO Media file produced by Google Inc. Created on: 12/08/2019.
      vendor_id       : [0][0][0][0]
Codec AVOption rc_eq (Set rate control equation. When computing the expression, besides the standard functions defined in the section 'Expression Evaluation', the following functions are available: bits2qp(bits), qp2bits(qp). Also the following constants are available: iTex pTex tex mv fCode iCount mcVar var isI isP isB avgQP qComp avgIITex avgPITex avgPPTex avgBPTex avgTex.) specified for output file #0 (/home/yiaapc5/public_html/f_data/data_userfiles/user_media/3995073565/v/de4a5cd982f5caa54090a378879c1147.mob.nomob.mp4) has not been used for any stream. The most likely reason is either wrong type (e.g. a video option with no video streams) or that it is a private option of some encoder which was not actually used for any stream.
Stream mapping:
  Stream #0:0 -> #0:0 (h264 (native) -> h264 (libx264))
  Stream #0:1 -> #0:1 (aac (native) -> aac (native))
Press [q] to stop, [?] for help
[libx264 @ 0x59f8bc0] Application has requested 32 threads. Using a thread count greater than 16 is not recommended.
[libx264 @ 0x59f8bc0] using SAR=136/135
[libx264 @ 0x59f8bc0] frame MB size (30x17) > level limit (396)
[libx264 @ 0x59f8bc0] VBV bitrate (10000) > level limit (768)
[libx264 @ 0x59f8bc0] VBV buffer (10000) > level limit (2000)
[libx264 @ 0x59f8bc0] MB rate (15284) > level limit (11880)
[libx264 @ 0x59f8bc0] using cpu capabilities: MMX2 SSE2Fast SSSE3 SSE4.2 AVX
[libx264 @ 0x59f8bc0] profile Constrained Baseline, level 1.3, 4:2:0, 8-bit
[libx264 @ 0x59f8bc0] 264 - core 161 r3040 35417dc - H.264/MPEG-4 AVC codec - Copyleft 2003-2021 - http://www.videolan.org/x264.html - options: cabac=0 ref=1 deblock=1:0:0 analyse=0x1:0 me=hex subme=1 psy=1 psy_rd=1.00:0.00 mixed_ref=0 me_range=16 chroma_me=1 trellis=0 8x8dct=0 cqm=0 deadzone=21,11 fast_pskip=1 chroma_qp_offset=0 threads=32 lookahead_threads=2 sliced_threads=0 nr=0 decimate=1 interlaced=0 bluray_compat=0 constrained_intra=0 bframes=0 weightp=0 keyint=300 keyint_min=25 scenecut=40 intra_refresh=0 rc_lookahead=30 rc=abr mbtree=1 bitrate=701 ratetol=1.0 qcomp=0.60 qpmin=10 qpmax=51 qpstep=4 vbv_maxrate=10000 vbv_bufsize=10000 nal_hrd=none filler=0 ip_ratio=1.41 aq=1:1.00
Output #0, mp4, to '/home/yiaapc5/public_html/f_data/data_userfiles/user_media/3995073565/v/de4a5cd982f5caa54090a378879c1147.mob.nomob.mp4':
  Metadata:
    major_brand     : mp42
    minor_version   : 0
    compatible_brands: isommp42
    encoder         : Lavf58.65.101
    Stream #0:0(und): Video: h264 (avc1 / 0x31637661), yuv420p(tv, bt709, progressive), 480x272 [SAR 136:135 DAR 16:9], q=2-31, 701 kb/s, 29.97 fps, 30k tbn (default)
    Metadata:
      creation_time   : 2019-12-08T16:03:34.000000Z
      handler_name    : ISO Media file produced by Google Inc. Created on: 12/08/2019.
      vendor_id       : [0][0][0][0]
      encoder         : Lavc58.119.100 libx264
    Side data:
      cpb: bitrate max/min/avg: 10000000/0/701000 buffer size: 10000000 vbv_delay: N/A
    Stream #0:1(und): Audio: aac (LC) (mp4a / 0x6134706D), 44100 Hz, stereo, fltp, 128 kb/s (default)
    Metadata:
      creation_time   : 2019-12-08T16:03:34.000000Z
      handler_name    : ISO Media file produced by Google Inc. Created on: 12/08/2019.
      vendor_id       : [0][0][0][0]
      encoder         : Lavc58.119.100 aac
frame=    1 fps=0.0 q=0.0 size=       0kB time=00:00:00.41 bitrate=   0.9kbits/s speed=8.47x    frame=  180 fps=0.0 q=24.0 size=     256kB time=00:00:06.33 bitrate= 330.9kbits/s speed=11.5x    frame=  392 fps=373 q=29.0 size=    1024kB time=00:00:13.49 bitrate= 621.8kbits/s speed=12.8x    frame=  609 fps=392 q=30.0 size=    1792kB time=00:00:20.45 bitrate= 717.6kbits/s speed=13.2x    frame=  831 fps=405 q=23.0 size=    2304kB time=00:00:27.88 bitrate= 676.8kbits/s speed=13.6x    frame= 1045 fps=409 q=24.0 size=    3072kB time=00:00:35.03 bitrate= 718.2kbits/s speed=13.7x    frame= 1255 fps=411 q=26.0 size=    3840kB time=00:00:41.88 bitrate= 751.0kbits/s speed=13.7x    frame= 1466 fps=413 q=28.0 size=    4864kB time=00:00:49.24 bitrate= 809.1kbits/s speed=13.9x    frame= 1671 fps=412 q=25.0 size=    5120kB time=00:00:55.75 bitrate= 752.3kbits/s speed=13.8x    frame= 1875 fps=412 q=24.0 size=    5632kB time=00:01:02.71 bitrate= 735.6kbits/s speed=13.8x    frame= 2084 fps=412 q=26.0 size=    6656kB time=00:01:09.68 bitrate= 782.5kbits/s speed=13.8x    frame= 2294 fps=413 q=26.0 size=    7424kB time=00:01:16.64 bitrate= 793.5kbits/s speed=13.8x    frame= 2501 fps=413 q=28.0 size=    8448kB time=00:01:23.61 bitrate= 827.7kbits/s speed=13.8x    frame= 2707 fps=413 q=29.0 size=    9216kB time=00:01:30.58 bitrate= 833.5kbits/s speed=13.8x    frame= 2912 fps=412 q=29.0 size=    9984kB time=00:01:37.47 bitrate= 839.1kbits/s speed=13.8x    frame= 3105 fps=411 q=28.0 size=   10496kB time=00:01:43.93 bitrate= 827.3kbits/s speed=13.7x    frame= 3315 fps=411 q=27.0 size=   10752kB time=00:01:50.66 bitrate= 795.9kbits/s speed=13.7x    frame= 3523 fps=411 q=28.0 size=   11776kB time=00:01:57.58 bitrate= 820.4kbits/s speed=13.7x    frame= 3526 fps=411 q=-1.0 Lsize=   12230kB time=00:01:57.63 bitrate= 851.7kbits/s speed=13.7x    
video:10283kB audio:1848kB subtitle:0kB other streams:0kB global headers:0kB muxing overhead: 0.814502%
[libx264 @ 0x59f8bc0] frame I:20    Avg QP:18.04  size: 24870
[libx264 @ 0x59f8bc0] frame P:3506  Avg QP:22.00  size:  2861
[libx264 @ 0x59f8bc0] mb I  I16..4:  9.8%  0.0% 90.2%
[libx264 @ 0x59f8bc0] mb P  I16..4:  0.4%  0.0%  0.0%  P16..4: 49.8%  0.0%  0.0%  0.0%  0.0%    skip:49.8%
[libx264 @ 0x59f8bc0] final ratefactor: 20.83
[libx264 @ 0x59f8bc0] coded y,uvDC,uvAC intra: 71.3% 84.1% 65.2% inter: 24.1% 18.1% 8.1%
[libx264 @ 0x59f8bc0] i16 v,h,dc,p: 46% 28% 14% 12%
[libx264 @ 0x59f8bc0] i4 v,h,dc,ddl,ddr,vr,hd,vl,hu: 28% 17%  8%  7%  8%  9%  7%  8%  8%
[libx264 @ 0x59f8bc0] i8c dc,h,v,p: 33% 24% 30% 14%
[libx264 @ 0x59f8bc0] kb/s:715.97
[aac @ 0x5a727c0] Qavg: 280.421
